<svg version="1.1" id="Layer_1" xmlns="http://www.w3.org/2000/svg" x="0" y="0" width="286.344" height="75.021" viewBox="0 0 286.344 75.021" xml:space="preserve"><path id="path16" fill="#FFF" d="M281.656 44.426v-14.3c0-6.33-4.688-10.08-11.427-10.08-6.096 0-11.02 3.927-11.02 10.843v13.77c0 6.388 4.748 10.313 11.312 10.313 6.035 0 11.134-3.69 11.134-10.547zm-27.132.76v-14.24c0-9.492 7.267-15.118 15.88-15.118 8.908 0 15.94 5.333 15.94 14.475v13.77c0 9.437-7.208 15.12-15.822 15.12-8.73 0-15.998-4.864-15.998-14.006zM240.342 16.65h4.747V58.43h-4.748V16.648zm-22.325 37.74c5.1 0 8.967-2.52 8.967-7.854 0-5.273-3.867-7.56-9.024-7.56h-10.725v15.413h10.782zm-.762-19.397c4.688 0 8.614-2.343 8.614-7.325 0-4.98-3.575-7.032-8.32-7.032h-10.315V34.99h10.02zm-14.767-18.4h16.057c7.268 0 11.955 3.516 11.955 10.372 0 4.395-2.578 8.204-7.267 9.553v.058c5.567.996 8.497 5.274 8.497 10.197 0 7.853-6.212 11.66-12.716 11.66h-16.526V16.59zm-48.11.058h5.802l13.127 25.608h.06L186.2 16.648h5.86V58.43h-4.57V24.91h-.12l-12.245 23.85h-3.75l-12.25-23.79h-.175v33.46h-4.57V16.65zm-22.793 24.378l-13.537-24.378h5.215l10.724 19.807 10.606-19.807h5.157l-13.596 24.438V58.43h-4.57V41.027zM86.23 49.113l4.336-1.582c1.64 4.69 5.86 7.443 11.544 7.443 5.51 0 9.962-2.696 9.962-7.5 0-4.454-2.754-6.272-6.446-7.443l-7.91-2.227c-5.86-1.642-9.26-4.688-9.26-10.666 0-6.915 5.86-11.25 13.42-11.25 6.447 0 11.838 2.4 14.007 7.91l-4.103 1.64c-1.817-3.574-5.216-5.566-9.962-5.566-4.278 0-8.674 2.17-8.674 6.857 0 3.28 1.993 5.567 6.916 7.032l7.97 2.226c4.922 1.35 8.672 4.396 8.672 11.018 0 7.15-5.92 12.13-14.827 12.13-7.617 0-13.712-3.457-15.645-10.02"/><path id="path18" fill="#F47216" d="M62.803 68.68c-9.193 5.95-21.5 3.31-27.442-5.873L25.31 47.28l4.514-2.923 10.05 15.527c2.736 4.227 7.32 6.55 12.012 6.6 2.743.03 5.523-.718 7.993-2.317a14.37 14.37 0 0 0 6.285-9.116c.81-3.777.098-7.645-2.002-10.89l-.756-1.166 1.08-.7a23.304 23.304 0 0 0 3.234-2.53l.956 1.476c5.945 9.185 3.312 21.494-5.873 27.44zm-43.95 2.747a19.703 19.703 0 0 1-12.502-8.62c-5.945-9.185-3.31-21.494 5.874-27.44l15.518-10.045 2.922 4.513-15.52 10.044a14.367 14.367 0 0 0-6.283 9.115 14.365 14.365 0 0 0 2.004 10.89 14.362 14.362 0 0 0 9.116 6.285 14.373 14.373 0 0 0 10.887-2l1.147-.744.705 1.09a23.114 23.114 0 0 0 2.527 3.223l-1.457.94a19.7 19.7 0 0 1-14.936 2.747zM12.2 6.34c9.187-5.95 21.495-3.31 27.44 5.873L49.69 27.74l-4.513 2.922-10.05-15.527C30.79 8.437 21.815 6.52 15.12 10.852a14.378 14.378 0 0 0-6.285 9.116c-.81 3.78-.1 7.647 2.002 10.89l.756 1.167-1.08.7a22.968 22.968 0 0 0-3.23 2.534l-.956-1.48C.38 24.595 3.014 12.285 12.2 6.34zM53.554 49.37l.755 1.167c.396.61.53 1.34.378 2.055a2.733 2.733 0 0 1-4.962.913l-.757-1.168 4.585-2.968zM52.332 26.03l-2.967-4.584 1.148-.743a2.693 2.693 0 0 1 2.056-.378 2.712 2.712 0 0 1 1.72 1.185 2.737 2.737 0 0 1-.81 3.778l-1.148.742zm-6.76 8.133l-.004-.006 9.62-6.228c2.72-1.76 3.5-5.407 1.742-8.13a5.844 5.844 0 0 0-3.704-2.552 5.833 5.833 0 0 0-4.423.815l-1.147.742-2.958-4.57 1.147-.743a11.245 11.245 0 0 1 8.52-1.566c2.96.633 5.492 2.38 7.134 4.917a11.25 11.25 0 0 1 1.566 8.522 11.24 11.24 0 0 1-4.918 7.134L35.418 47.21l-2.954-4.564 13.108-8.485zm-17.655-14.36a5.843 5.843 0 0 0-3.704-2.555 5.847 5.847 0 0 0-4.424.815 5.884 5.884 0 0 0-1.742 8.127l.755 1.168-4.568 2.957-.755-1.167a11.246 11.246 0 0 1-1.567-8.52 11.252 11.252 0 0 1 4.918-7.135c5.238-3.392 12.26-1.89 15.656 3.352l5.386 8.32-4.57 2.96-5.385-8.322zm-6.473 5.845l-.755-1.167a2.734 2.734 0 0 1 2.866-4.154c.71.152 1.324.574 1.72 1.187l.755 1.167-4.586 2.968zm-1.63 21.442c-2.72 1.76-3.5 5.405-1.742 8.13a5.844 5.844 0 0 0 3.704 2.552 5.845 5.845 0 0 0 4.424-.813l1.146-.743 2.958 4.57-1.147.742a11.24 11.24 0 0 1-8.52 1.565 11.244 11.244 0 0 1-7.133-4.917 11.238 11.238 0 0 1-1.567-8.52c.63-2.958 2.38-5.492 4.916-7.136l22.73-14.712 2.957 4.57L19.813 47.09zm2.855 1.9l2.967 4.584-1.146.74a2.734 2.734 0 0 1-3.776-.805 2.736 2.736 0 0 1 .81-3.78l1.145-.74zm38.85-3.12a11.24 11.24 0 0 1 1.568 8.522 11.25 11.25 0 0 1-4.917 7.134c-5.237 3.392-12.258 1.89-15.654-3.352l-5.387-8.32 4.568-2.96 5.387 8.324a5.845 5.845 0 0 0 3.704 2.552 5.825 5.825 0 0 0 4.424-.814 5.836 5.836 0 0 0 2.553-3.703 5.84 5.84 0 0 0-.814-4.424l-.755-1.168 4.57-2.958.753 1.167zM56.15 3.594a19.703 19.703 0 0 1 12.503 8.62c5.947 9.185 3.313 21.494-5.872 27.44L47.26 49.7l-2.92-4.515L59.856 35.14a14.367 14.367 0 0 0 6.285-9.116c.81-3.78.1-7.647-2.002-10.89a14.36 14.36 0 0 0-9.116-6.285 14.36 14.36 0 0 0-10.888 2l-1.147.742-.706-1.09a22.892 22.892 0 0 0-2.526-3.222l1.457-.942A19.696 19.696 0 0 1 56.15 3.593zM71.316 39.53l-1.388-2.144a22.89 22.89 0 0 0 4.546-9.578 22.842 22.842 0 0 0-3.182-17.306C67.957 5.346 62.812 1.8 56.806.514 50.794-.768 44.656.36 39.502 3.696l-2.13 1.377C29.855-.954 19.017-1.82 10.49 3.697-.153 10.587-3.205 24.85 3.684 35.49l1.393 2.15C-.944 45.163-1.806 56 3.708 64.518a22.83 22.83 0 0 0 14.487 9.987c1.535.328 3.08.5 4.613.517 4.47.048 8.855-1.214 12.69-3.697l2.125-1.374a23.108 23.108 0 0 0 14.186 5.056 22.87 22.87 0 0 0 12.702-3.684c10.642-6.89 13.694-21.15 6.804-31.792"/></svg>